# Blender 3.5.1
# www.blender.org
mtllib v1-main--m.mtl
o helix
v 0.062768 5.439861 0.209225
v 0.062768 5.439861 -0.209225
v 0.062768 5.481706 -0.209225
v 0.062768 5.481706 0.209225
v -0.062768 5.439861 0.209225
v -0.062768 5.481706 0.209225
v -0.062768 5.439861 -0.209225
v -0.062768 5.481706 -0.209225
vn 1.0000 -0.0000 -0.0000
vn -0.0000 -0.0000 1.0000
vn -1.0000 -0.0000 -0.0000
vn -0.0000 -0.0000 -1.0000
vn -0.0000 1.0000 -0.0000
vn -0.0000 -1.0000 -0.0000
vt 0.727912 0.676453
vt 0.577789 0.702483
vt 0.701882 0.676453
vt 0.727912 0.513015
vt 0.620163 0.751514
vt 0.701882 0.513015
vt 0.744255 0.513015
vt 0.636506 0.751514
vt 0.577789 0.513015
vt 0.744255 0.676453
vt 0.594133 0.702483
vt 0.577789 0.676453
vt 0.577789 0.751514
vt 0.786629 0.676453
vt 0.652850 0.676453
vt 0.594133 0.751514
vt 0.770285 0.676453
vt 0.626820 0.676453
vt 0.786629 0.513015
vt 0.620163 0.702483
vt 0.652850 0.513015
vt 0.770285 0.513015
vt 0.636506 0.702483
vt 0.626820 0.513015
s 0
f 1/1/1 2/4/1 4/10/1
f 4/10/1 2/4/1 3/7/1
f 5/13/2 1/2/2 6/16/2
f 6/16/2 1/2/2 4/11/2
f 7/19/3 5/14/3 8/22/3
f 8/22/3 5/14/3 6/17/3
f 2/5/4 7/20/4 3/8/4
f 3/8/4 7/20/4 8/23/4
f 8/24/5 6/18/5 3/9/5
f 3/9/5 6/18/5 4/12/5
f 7/21/6 2/6/6 5/15/6
f 5/15/6 2/6/6 1/3/6
