# Blender 3.4.1
# www.blender.org
mtllib lerat.mtl
o SWP_RAT
v -0.675000 -0.581250 0.225000
v -0.843750 -0.356250 0.168750
v -0.768750 -0.431250 -0.000000
v -0.600000 -0.562500 -0.000000
v 0.618750 -0.581250 0.318750
v 0.993750 -0.243750 0.543750
v 0.506250 -0.675000 0.675000
v 0.543750 -0.412500 1.050000
v 0.506250 0.675000 0.675000
v 0.543750 0.412500 1.050000
v 0.993750 0.243750 0.543750
v 0.618750 0.581250 0.318750
v -0.675000 -0.581250 0.225000
v -0.675000 0.581250 0.225000
v -0.300000 -0.675000 0.637500
v -0.843750 -0.431250 0.393750
v -0.843750 -0.356250 0.168750
v -0.843750 0.356250 0.168750
v -0.318750 -0.412500 0.918750
v -0.318750 0.412500 0.918750
v -0.300000 0.675000 0.637500
v -0.862500 0.300000 0.768750
v -0.862500 -0.300000 0.768750
v -0.843750 0.431250 0.393750
v -0.843750 0.356250 0.168750
v -0.675000 0.581250 0.225000
v -0.600000 0.562500 -0.000000
v -0.768750 0.431250 -0.000000
v -1.125000 0.356250 0.768750
v -1.125000 -0.356250 0.768750
v -0.862500 -0.300000 0.768750
v -0.862500 0.300000 0.768750
v -1.125000 -0.525000 0.375000
v -0.862500 -0.431250 0.393750
v -1.125000 0.525000 0.375000
v -0.862500 0.431250 0.393750
v -1.912500 0.318750 0.375000
v -1.912500 0.262500 0.543750
v -1.425000 0.356250 0.750000
v -1.406250 0.506250 0.337500
v -1.425000 -0.356250 0.750000
v -1.293750 -0.506250 0.881250
v -1.181250 -0.525000 0.881250
v -1.293750 0.506250 0.881250
v -1.181250 0.525000 0.881250
v -1.406250 -0.506250 0.337500
v -1.912500 -0.262500 0.543750
v -1.912500 -0.318750 0.375000
v 0.618750 0.581250 0.318750
v 0.993750 0.243750 0.543750
v 0.843750 0.525000 0.000000
v 0.731250 0.600000 0.000000
v 0.825000 -0.525000 0.000000
v 0.993750 -0.243750 0.543750
v 0.618750 -0.581250 0.318750
v 0.731250 -0.600000 0.000000
v -0.975000 -0.562500 -0.037500
v -0.768750 -0.656250 -0.018750
v -0.768750 0.656250 -0.018750
v -0.975000 0.562500 -0.037500
v -2.006250 0.225000 0.375000
v -2.006250 0.206250 0.412500
v -2.006250 -0.206250 0.412500
v -2.006250 -0.225000 0.375000
v 1.593750 -0.150000 0.356250
v 1.593750 0.112500 0.375000
v 0.993750 0.243750 0.543750
v 0.993750 -0.243750 0.543750
v 1.593750 -0.150000 0.375000
v 2.156250 -0.056250 0.337500
v 2.156250 0.037500 0.337500
v 1.593750 0.112500 0.375000
v 2.756250 0.000000 0.468750
v 2.756250 0.018750 0.468750
v 0.750000 0.600000 -0.037500
v 0.525000 0.487500 -0.168750
v 0.731250 0.431250 -0.056250
v 0.731250 -0.431250 -0.056250
v 0.525000 -0.487500 -0.187500
v 0.750000 -0.600000 -0.037500
vn -0.5927 -0.7620 -0.2610
vn 0.6645 -0.7472 0.0132
vn 0.6681 -0.6393 0.3807
vn 0.6681 0.6393 0.3807
vn 0.6645 0.7472 0.0132
vn 0.0723 -0.0000 -0.9974
vn -0.4882 -0.8350 0.2540
vn 0.5145 -0.0000 -0.8575
vn 0.3162 -0.0000 -0.9487
vn -0.1504 -0.0000 0.9886
vn 0.0117 0.9679 -0.2510
vn 0.0171 -0.9715 -0.2364
vn -0.2659 -0.0000 0.9640
vn -0.0878 -0.8119 0.5771
vn -0.0317 0.7317 0.6808
vn -0.4910 0.8296 0.2658
vn -0.3206 -0.7030 0.6348
vn -0.7573 0.6196 -0.2065
vn 0.7474 -0.0000 0.6644
vn -0.7880 0.6107 -0.0788
vn -0.0000 -0.0000 1.0000
vn 0.1982 -0.9251 0.3238
vn 0.2875 0.8804 0.3773
vn -0.3116 0.9014 0.3005
vn -0.0624 -0.0000 0.9981
vn -0.0246 0.9189 0.3938
vn 0.0886 0.5319 0.8422
vn 0.0886 -0.5319 0.8422
vn -0.0246 -0.9189 0.3938
vn -0.3054 -0.8993 0.3131
vn -0.3896 -0.0000 0.9210
vn 0.5388 0.8082 0.2377
vn 0.6036 -0.7546 0.2574
vn -0.0645 -0.0829 0.9945
vn -0.1273 0.0824 0.9884
vn -0.6667 0.6667 0.3333
vn -0.7113 -0.6668 0.2223
vn -0.8137 -0.0000 0.5812
vn 0.3072 -0.0678 0.9492
vn 0.0665 -0.0000 0.9978
vn -0.2137 -0.0000 0.9769
vn -0.4090 -0.0558 0.9108
vn -0.4815 0.0438 0.8754
vn -0.7880 -0.6107 -0.0788
vn -0.7573 -0.6196 -0.2065
vn 0.0171 0.9715 -0.2364
vn 0.0117 -0.9679 -0.2510
vn -0.0317 -0.7317 0.6808
vn -0.0878 0.8119 0.5771
vn -0.3206 0.7030 0.6348
vn -0.4910 -0.8296 0.2658
vn -0.4882 0.8350 0.2540
vn -0.5927 0.7620 -0.2610
vn 0.2875 -0.8804 0.3773
vn 0.1982 0.9251 0.3238
vn -0.3054 0.8993 0.3131
vn -0.1071 0.9359 0.3355
vn -0.0483 0.6335 0.7722
vn -0.0483 -0.6335 0.7722
vn -0.1071 -0.9359 0.3355
vn -0.3116 -0.9014 0.3005
vn 0.5581 0.7898 0.2546
vn 0.5710 -0.7880 0.2304
vn -0.1273 -0.0824 0.9884
vn -0.0645 0.0829 0.9945
vn -0.7113 0.6668 0.2223
vn -0.6667 -0.6667 0.3333
vn 0.2707 -0.0000 0.9627
vn -0.4874 -0.0428 0.8721
vn -0.5430 0.0329 0.8391
vt 0.901376 0.661524
vt 0.902802 0.625282
vt 0.926042 0.635039
vt 0.325110 0.324210
vt 0.931462 0.661524
vt 0.345024 0.404768
vt 0.717325 0.466288
vt 0.716146 0.465348
vt 0.718024 0.465063
vt 0.717087 0.463641
vt 0.713329 0.464958
vt 0.714512 0.463774
vt 0.715095 0.465316
vt 0.713901 0.466507
vt 0.759913 0.514726
vt 0.655678 0.496274
vt 0.739122 0.467188
vt 0.955837 0.588697
vt 0.745469 0.533015
vt 0.660290 0.524248
vt 0.734837 0.450900
vt 0.699471 0.442340
vt 0.689152 0.459292
vt 0.594731 0.294685
vt 0.955837 0.267030
vt 0.540643 0.489819
vt 0.931438 0.588854
vt 0.931438 0.625125
vt 0.901376 0.623942
vt 0.135691 0.714989
vt 0.907832 0.597690
vt 0.213914 0.687292
vt 0.596149 0.698533
vt 0.761566 0.670249
vt 0.680659 0.699964
vt 0.761723 0.670249
vt 0.676588 0.732970
vt 0.599166 0.732851
vt 0.735492 0.694082
vt 0.730464 0.732195
vt 0.540643 0.690933
vt 0.544275 0.729923
vt 0.581351 0.588854
vt 0.135691 0.532612
vt 0.603662 0.597107
vt 0.172389 0.591097
vt 0.761566 0.632237
vt 0.598211 0.662495
vt 0.544735 0.651277
vt 0.761723 0.632237
vt 0.679062 0.664869
vt 0.786238 0.649838
vt 0.787640 0.664192
vt 0.737051 0.649838
vt 0.735649 0.664192
vt 0.732915 0.654758
vt 0.674904 0.596281
vt 0.376173 0.591097
vt 0.698230 0.588854
vt 0.412871 0.532612
vt 0.790525 0.632080
vt 0.735649 0.588854
vt 0.424887 0.404301
vt 0.815354 0.588854
vt 0.822978 0.604159
vt 0.430246 0.648020
vt 0.887358 0.637061
vt 0.823135 0.588854
vt 0.892991 0.588854
vt 0.901219 0.630867
vt 0.405274 0.271386
vt 0.405274 0.359627
vt 0.140232 0.639842
vt 0.213914 0.591288
vt 0.184267 0.515616
vt 0.194223 0.528489
vt 0.354339 0.528489
vt 0.364295 0.515616
vt 0.288767 0.515424
vt 0.186637 0.513318
vt 0.135691 0.271386
vt 0.324919 0.271386
vt 0.135499 0.271386
vt 0.099109 0.490211
vt 0.062719 0.490211
vt 0.033607 0.271386
vt 0.077275 0.728614
vt 0.069998 0.728614
vt 0.405466 0.359508
vt 0.471530 0.271386
vt 0.471530 0.365156
vt 0.413063 0.594823
vt 0.469699 0.515616
vt 0.469699 0.629302
s 0
usemtl rat_colors.png
f 1/1/1 3/3/1 4/5/1
f 5/7/2 6/8/2 7/9/2
f 8/10/3 7/9/3 6/8/3
f 9/11/4 10/12/4 11/13/4
f 12/14/5 9/11/5 11/13/5
f 13/15/6 12/14/6 5/7/6
f 16/18/7 13/15/7 15/17/7
f 6/8/8 12/14/8 11/13/8
f 18/20/9 13/15/9 17/19/9
f 8/10/10 20/22/10 19/21/10
f 12/14/11 21/23/11 9/11/11
f 5/7/12 15/17/12 13/15/12
f 23/25/13 20/22/13 22/24/13
f 19/21/14 7/9/14 8/10/14
f 20/22/15 9/11/15 21/23/15
f 22/24/16 21/23/16 24/26/16
f 23/25/17 15/17/17 19/21/17
f 24/26/18 14/16/18 18/20/18
f 10/12/19 6/8/19 11/13/19
f 26/28/20 28/31/20 25/27/20
f 30/35/21 32/38/21 29/33/21
f 30/35/22 34/40/22 31/37/22
f 29/33/23 36/42/23 35/41/23
f 38/45/24 40/49/24 37/43/24
f 41/51/25 29/33/25 39/48/25
f 35/41/26 39/48/26 29/33/26
f 30/36/27 42/52/27 43/53/27
f 44/54/28 29/34/28 45/55/28
f 41/51/29 33/39/29 30/35/29
f 47/57/30 46/56/30 41/51/30
f 47/57/31 39/48/31 38/45/31
f 49/61/32 51/64/32 52/65/32
f 53/67/33 55/69/33 56/70/33
f 3/4/34 58/72/34 4/6/34
f 28/32/35 59/73/35 60/74/35
f 62/76/36 37/44/36 61/75/36
f 63/77/37 48/60/37 47/58/37
f 63/77/38 38/46/38 62/76/38
f 66/80/39 68/82/39 65/79/39
f 70/84/40 72/86/40 69/83/40
f 71/85/41 73/87/41 74/88/41
f 75/89/42 77/91/42 51/63/42
f 78/92/43 80/94/43 53/66/43
f 1/1/44 2/2/44 3/3/44
f 13/15/6 14/16/6 12/14/6
f 16/18/45 17/19/45 13/15/45
f 6/8/8 5/7/8 12/14/8
f 18/20/9 14/16/9 13/15/9
f 8/10/10 10/12/10 20/22/10
f 12/14/46 14/16/46 21/23/46
f 5/7/47 7/9/47 15/17/47
f 23/25/13 19/21/13 20/22/13
f 19/21/48 15/17/48 7/9/48
f 20/22/49 10/12/49 9/11/49
f 22/24/50 20/22/50 21/23/50
f 23/25/51 16/18/51 15/17/51
f 24/26/52 21/23/52 14/16/52
f 10/12/19 8/10/19 6/8/19
f 26/28/53 27/29/53 28/31/53
f 30/35/21 31/37/21 32/38/21
f 30/35/54 33/39/54 34/40/54
f 29/33/55 32/38/55 36/42/55
f 38/45/56 39/48/56 40/49/56
f 41/51/25 30/35/25 29/33/25
f 35/41/57 40/49/57 39/48/57
f 30/36/58 41/50/58 42/52/58
f 44/54/59 39/47/59 29/34/59
f 41/51/60 46/56/60 33/39/60
f 47/57/61 48/59/61 46/56/61
f 47/57/31 41/51/31 39/48/31
f 49/61/62 50/62/62 51/64/62
f 53/67/63 54/68/63 55/69/63
f 3/4/64 57/71/64 58/72/64
f 28/32/65 27/30/65 59/73/65
f 62/76/66 38/46/66 37/44/66
f 63/77/67 64/78/67 48/60/67
f 63/77/38 47/58/38 38/46/38
f 66/80/68 67/81/68 68/82/68
f 70/84/40 71/85/40 72/86/40
f 71/85/41 70/84/41 73/87/41
f 75/89/69 76/90/69 77/91/69
f 78/92/70 79/93/70 80/94/70
