# Blender 3.5.1
# www.blender.org
mtllib shroom_cluster2.mtl
o Shroom9
v 0.097740 -0.563940 0.069010
v 0.129937 -0.596137 0.002398
v 0.143273 -0.563940 0.002398
v 0.129937 -0.531743 0.002398
v 0.097740 -0.518407 0.002398
v 0.065543 -0.531743 0.002398
v 0.052207 -0.563940 0.002398
v 0.065543 -0.596137 0.002398
v 0.097740 -0.609473 0.002398
v 0.143273 -0.563940 0.058324
v 0.176294 -0.563940 0.046309
v 0.208696 -0.563940 0.036508
v 0.207514 -0.563940 0.029363
v 0.202183 -0.563940 0.026204
v 0.143273 -0.563940 0.022319
v 0.143273 -0.563940 0.012359
v 0.129937 -0.596137 0.058324
v 0.153286 -0.619486 0.046309
v 0.176197 -0.642397 0.036508
v 0.175362 -0.641561 0.029363
v 0.171593 -0.637792 0.026204
v 0.129937 -0.596137 0.022319
v 0.129937 -0.596137 0.012359
v 0.129937 -0.531743 0.058324
v 0.153286 -0.508394 0.046309
v 0.176197 -0.485482 0.036508
v 0.175362 -0.486318 0.029363
v 0.171593 -0.490087 0.026204
v 0.129937 -0.531743 0.022319
v 0.129937 -0.531743 0.012359
v 0.097740 -0.518407 0.058324
v 0.097740 -0.485386 0.046309
v 0.097740 -0.452984 0.036508
v 0.097740 -0.454166 0.029363
v 0.097740 -0.459497 0.026204
v 0.097740 -0.518407 0.022319
v 0.097740 -0.518407 0.012359
v 0.065543 -0.531743 0.058324
v 0.042194 -0.508394 0.046309
v 0.019283 -0.485483 0.036508
v 0.020119 -0.486318 0.029363
v 0.023888 -0.490087 0.026204
v 0.065543 -0.531743 0.022319
v 0.065543 -0.531743 0.012359
v 0.052207 -0.563940 0.058324
v 0.019186 -0.563940 0.046309
v -0.013215 -0.563940 0.036508
v -0.012033 -0.563940 0.029363
v -0.006703 -0.563940 0.026204
v 0.052207 -0.563940 0.022319
v 0.052207 -0.563940 0.012359
v 0.065543 -0.596137 0.058324
v 0.042194 -0.619486 0.046309
v 0.019283 -0.642397 0.036508
v 0.020119 -0.641561 0.029363
v 0.023888 -0.637792 0.026204
v 0.065543 -0.596137 0.022319
v 0.065543 -0.596137 0.012359
v 0.097740 -0.609473 0.058324
v 0.097740 -0.642494 0.046309
v 0.097740 -0.674895 0.036508
v 0.097740 -0.673713 0.029363
v 0.097740 -0.668383 0.026204
v 0.097740 -0.609473 0.022319
v 0.097740 -0.609473 0.012359
vn -0.0000 -0.0000 1.0000
vn 0.2115 -0.2115 0.9542
vn 0.2992 -0.0000 0.9542
vn 0.2189 -0.2189 0.9509
vn 0.3096 -0.0000 0.9509
vn 0.6253 -0.6253 0.4668
vn 0.8844 -0.0000 0.4668
vn 0.6036 -0.6036 -0.5210
vn 0.8536 -0.0000 -0.5210
vn 0.2453 -0.2453 -0.9379
vn 0.3469 -0.0000 -0.9379
vn 0.4442 -0.4442 -0.7781
vn 0.6281 -0.0000 -0.7781
vn 0.7071 -0.7071 -0.0000
vn 1.0000 -0.0000 -0.0000
vn 0.2115 0.2115 0.9542
vn 0.2189 0.2189 0.9509
vn 0.6253 0.6253 0.4668
vn 0.6036 0.6036 -0.5210
vn 0.2453 0.2453 -0.9379
vn 0.4442 0.4442 -0.7781
vn 0.7071 0.7071 -0.0000
vn -0.0000 0.2992 0.9542
vn -0.0000 0.3096 0.9509
vn -0.0000 0.8844 0.4668
vn -0.0000 0.8536 -0.5210
vn -0.0000 0.3469 -0.9379
vn -0.0000 0.6281 -0.7781
vn -0.0000 1.0000 -0.0000
vn -0.2115 0.2115 0.9542
vn -0.2189 0.2189 0.9509
vn -0.6253 0.6253 0.4668
vn -0.6036 0.6036 -0.5210
vn -0.2453 0.2453 -0.9379
vn -0.4442 0.4442 -0.7781
vn -0.7071 0.7071 -0.0000
vn -0.2992 -0.0000 0.9542
vn -0.3096 -0.0000 0.9509
vn -0.8844 -0.0000 0.4668
vn -0.8536 -0.0000 -0.5210
vn -0.3469 -0.0000 -0.9379
vn -0.6281 -0.0000 -0.7781
vn -1.0000 -0.0000 -0.0000
vn -0.2115 -0.2115 0.9542
vn -0.2189 -0.2189 0.9509
vn -0.6253 -0.6253 0.4668
vn -0.6036 -0.6036 -0.5210
vn -0.2453 -0.2453 -0.9379
vn -0.4442 -0.4442 -0.7781
vn -0.7071 -0.7071 -0.0000
vn -0.0000 -0.2992 0.9542
vn -0.0000 -0.3096 0.9509
vn -0.0000 -0.8844 0.4668
vn -0.0000 -0.8536 -0.5210
vn -0.0000 -0.3469 -0.9379
vn -0.0000 -0.6281 -0.7781
vn -0.0000 -1.0000 -0.0000
vt 0.501406 0.989512
vt 0.622882 0.989512
vt 0.744358 0.989512
vt 0.865833 0.989512
vt 0.015503 0.989512
vt 0.136979 0.989512
vt 0.258455 0.989512
vt 0.379931 0.989512
vt 0.501406 0.010488
vt 0.622882 0.010488
vt 0.744358 0.010488
vt 0.865833 0.010488
vt 0.987309 0.010488
vt 0.015503 0.010488
vt 0.136979 0.010488
vt 0.258455 0.010488
vt 0.379931 0.010488
vt 0.622882 0.867134
vt 0.622882 0.744756
vt 0.622882 0.622378
vt 0.622882 0.500000
vt 0.622882 0.377622
vt 0.622882 0.255244
vt 0.622882 0.132866
vt 0.501406 0.867134
vt 0.501406 0.744756
vt 0.501406 0.622378
vt 0.501406 0.500000
vt 0.501406 0.377622
vt 0.501406 0.255244
vt 0.501406 0.132866
vt 0.744358 0.867134
vt 0.744358 0.744756
vt 0.744358 0.622378
vt 0.744358 0.500000
vt 0.744358 0.377622
vt 0.744358 0.255244
vt 0.744358 0.132866
vt 0.865833 0.867134
vt 0.865833 0.744756
vt 0.865833 0.622378
vt 0.865833 0.500000
vt 0.865833 0.377622
vt 0.865833 0.255244
vt 0.865833 0.132866
vt 0.987309 0.867134
vt 0.015503 0.867134
vt 0.987309 0.744756
vt 0.015503 0.744756
vt 0.987309 0.622378
vt 0.015503 0.622378
vt 0.987309 0.500000
vt 0.015503 0.500000
vt 0.987309 0.377622
vt 0.015503 0.377622
vt 0.987309 0.255244
vt 0.015503 0.255244
vt 0.987309 0.132866
vt 0.015503 0.132866
vt 0.136979 0.867134
vt 0.136979 0.744756
vt 0.136979 0.622378
vt 0.136979 0.500000
vt 0.136979 0.377622
vt 0.136979 0.255244
vt 0.136979 0.132866
vt 0.258455 0.867134
vt 0.258455 0.744756
vt 0.258455 0.622378
vt 0.258455 0.500000
vt 0.258455 0.377622
vt 0.258455 0.255244
vt 0.258455 0.132866
vt 0.379931 0.867134
vt 0.379931 0.744756
vt 0.379931 0.622378
vt 0.379931 0.500000
vt 0.379931 0.377622
vt 0.379931 0.255244
vt 0.379931 0.132866
s 1
usemtl Shroom
f 1/1/1 17/25/2 10/18/3
f 17/25/2 18/26/4 11/19/5 10/18/3
f 18/26/4 19/27/6 12/20/7 11/19/5
f 19/27/6 20/28/8 13/21/9 12/20/7
f 20/28/8 21/29/10 14/22/11 13/21/9
f 21/29/10 22/30/12 15/23/13 14/22/11
f 22/30/12 23/31/14 16/24/15 15/23/13
f 23/31/14 2/9/14 3/10/15 16/24/15
f 1/2/1 10/18/3 24/32/16
f 10/18/3 11/19/5 25/33/17 24/32/16
f 11/19/5 12/20/7 26/34/18 25/33/17
f 12/20/7 13/21/9 27/35/19 26/34/18
f 13/21/9 14/22/11 28/36/20 27/35/19
f 14/22/11 15/23/13 29/37/21 28/36/20
f 15/23/13 16/24/15 30/38/22 29/37/21
f 16/24/15 3/10/15 4/11/22 30/38/22
f 1/3/1 24/32/16 31/39/23
f 24/32/16 25/33/17 32/40/24 31/39/23
f 25/33/17 26/34/18 33/41/25 32/40/24
f 26/34/18 27/35/19 34/42/26 33/41/25
f 27/35/19 28/36/20 35/43/27 34/42/26
f 28/36/20 29/37/21 36/44/28 35/43/27
f 29/37/21 30/38/22 37/45/29 36/44/28
f 30/38/22 4/11/22 5/12/29 37/45/29
f 1/4/1 31/39/23 38/46/30
f 31/39/23 32/40/24 39/48/31 38/46/30
f 32/40/24 33/41/25 40/50/32 39/48/31
f 33/41/25 34/42/26 41/52/33 40/50/32
f 34/42/26 35/43/27 42/54/34 41/52/33
f 35/43/27 36/44/28 43/56/35 42/54/34
f 36/44/28 37/45/29 44/58/36 43/56/35
f 37/45/29 5/12/29 6/13/36 44/58/36
f 1/5/1 38/47/30 45/60/37
f 38/47/30 39/49/31 46/61/38 45/60/37
f 39/49/31 40/51/32 47/62/39 46/61/38
f 40/51/32 41/53/33 48/63/40 47/62/39
f 41/53/33 42/55/34 49/64/41 48/63/40
f 42/55/34 43/57/35 50/65/42 49/64/41
f 43/57/35 44/59/36 51/66/43 50/65/42
f 44/59/36 6/14/36 7/15/43 51/66/43
f 1/6/1 45/60/37 52/67/44
f 45/60/37 46/61/38 53/68/45 52/67/44
f 46/61/38 47/62/39 54/69/46 53/68/45
f 47/62/39 48/63/40 55/70/47 54/69/46
f 48/63/40 49/64/41 56/71/48 55/70/47
f 49/64/41 50/65/42 57/72/49 56/71/48
f 50/65/42 51/66/43 58/73/50 57/72/49
f 51/66/43 7/15/43 8/16/50 58/73/50
f 1/7/1 52/67/44 59/74/51
f 52/67/44 53/68/45 60/75/52 59/74/51
f 53/68/45 54/69/46 61/76/53 60/75/52
f 54/69/46 55/70/47 62/77/54 61/76/53
f 55/70/47 56/71/48 63/78/55 62/77/54
f 56/71/48 57/72/49 64/79/56 63/78/55
f 57/72/49 58/73/50 65/80/57 64/79/56
f 58/73/50 8/16/50 9/17/57 65/80/57
f 2/9/14 23/31/14 65/80/57 9/17/57
f 23/31/14 22/30/12 64/79/56 65/80/57
f 22/30/12 21/29/10 63/78/55 64/79/56
f 21/29/10 20/28/8 62/77/54 63/78/55
f 20/28/8 19/27/6 61/76/53 62/77/54
f 19/27/6 18/26/4 60/75/52 61/76/53
f 18/26/4 17/25/2 59/74/51 60/75/52
f 17/25/2 1/8/1 59/74/51
o Shroom8
v 0.110052 -0.371944 0.138055
v 0.128344 -0.414973 0.002866
v 0.146167 -0.371944 0.002866
v 0.128344 -0.328914 0.002866
v 0.085314 -0.311090 0.002866
v 0.050921 -0.321512 0.002866
v 0.024461 -0.371944 0.002866
v 0.042284 -0.414973 0.002866
v 0.085314 -0.432797 0.002866
v 0.138956 -0.371944 0.131046
v 0.182149 -0.371944 0.118788
v 0.256053 -0.371944 0.095670
v 0.264614 -0.371944 0.081375
v 0.252532 -0.371944 0.071257
v 0.154258 -0.371944 0.071678
v 0.146167 -0.371944 0.040899
v 0.127773 -0.399121 0.132243
v 0.156392 -0.434304 0.120728
v 0.208264 -0.487642 0.099270
v 0.214019 -0.494438 0.085186
v 0.205980 -0.484647 0.074763
v 0.135590 -0.417140 0.073084
v 0.128344 -0.414973 0.040899
v 0.127773 -0.344766 0.132243
v 0.156392 -0.309583 0.120728
v 0.208264 -0.256245 0.099270
v 0.214019 -0.249449 0.085186
v 0.205980 -0.259240 0.074763
v 0.135590 -0.326748 0.073084
v 0.128344 -0.328914 0.040899
v 0.100773 -0.333508 0.135132
v 0.094208 -0.283753 0.125411
v 0.098708 -0.232002 0.107522
v 0.097686 -0.222392 0.093948
v 0.099410 -0.236238 0.082790
v 0.090522 -0.308027 0.076478
v 0.085314 -0.311090 0.040899
v 0.077028 -0.342859 0.137775
v 0.046880 -0.297501 0.128976
v 0.009604 -0.231249 0.114233
v 0.004000 -0.222808 0.101005
v 0.012221 -0.235693 0.089357
v 0.054766 -0.318821 0.079171
v 0.050921 -0.321512 0.040899
v 0.062589 -0.371944 0.139217
v 0.006266 -0.371944 0.132035
v -0.070267 -0.371944 0.120249
v -0.080873 -0.371944 0.107398
v -0.065342 -0.371944 0.095200
v 0.026786 -0.371944 0.081279
v 0.024461 -0.371944 0.040899
v 0.073773 -0.399121 0.138020
v 0.032023 -0.434304 0.130095
v -0.022478 -0.487642 0.116650
v -0.030277 -0.494438 0.103587
v -0.018790 -0.484647 0.091693
v 0.045453 -0.417140 0.079873
v 0.042284 -0.414973 0.040899
v 0.100773 -0.410379 0.135132
v 0.094208 -0.460134 0.125411
v 0.096626 -0.508927 0.107679
v 0.095604 -0.518538 0.094105
v 0.097329 -0.504692 0.082947
v 0.090522 -0.435860 0.076478
v 0.085314 -0.432797 0.040899
vn 0.1337 -0.0002 0.9910
vn 0.2102 -0.1189 0.9704
vn 0.2622 -0.0000 0.9650
vn 0.2219 -0.1730 0.9596
vn 0.2909 -0.0000 0.9568
vn 0.4472 -0.4846 0.7518
vn 0.6707 -0.0000 0.7417
vn 0.6308 -0.7627 -0.1431
vn 0.9880 -0.0000 -0.1546
vn 0.2345 -0.3487 -0.9075
vn 0.4080 -0.0000 -0.9130
vn 0.3472 -0.4073 -0.8447
vn 0.5017 -0.0000 -0.8650
vn 0.6916 -0.7151 -0.1017
vn 0.9915 -0.0000 -0.1299
vn 0.7071 -0.7071 -0.0000
vn 1.0000 -0.0000 -0.0000
vn 0.2102 0.1189 0.9704
vn 0.2228 0.1697 0.9600
vn 0.4542 0.4772 0.7523
vn 0.6389 0.7558 -0.1436
vn 0.2399 0.3438 -0.9079
vn 0.3477 0.4063 -0.8450
vn 0.6916 0.7151 -0.1017
vn 0.7071 0.7071 -0.0000
vn 0.1004 0.1620 0.9817
vn 0.0918 0.2462 0.9649
vn 0.1276 0.6046 0.7862
vn 0.0916 0.9857 -0.1416
vn -0.0178 0.4043 -0.9144
vn -0.0166 0.6189 -0.7853
vn 0.0322 0.9984 -0.0457
vn 0.0492 0.9988 -0.0000
vn -0.0179 0.1172 0.9929
vn -0.0569 0.1829 0.9815
vn -0.2611 0.5368 0.8023
vn -0.5135 0.8524 -0.0984
vn -0.2622 0.3575 -0.8964
vn -0.4412 0.4848 -0.7552
vn -0.6484 0.7613 0.0057
vn -0.6372 0.7707 -0.0000
vn -0.0698 0.0091 0.9975
vn -0.1430 0.0157 0.9896
vn -0.5608 0.0451 0.8267
vn -0.9953 0.0532 -0.0807
vn -0.4569 0.0322 -0.8889
vn -0.6690 0.0304 -0.7426
vn -0.9985 0.0452 0.0293
vn -0.9990 0.0452 -0.0000
vn -0.0207 -0.1139 0.9933
vn -0.0734 -0.1734 0.9821
vn -0.3266 -0.4879 0.8095
vn -0.6565 -0.7487 -0.0914
vn -0.3012 -0.3322 -0.8939
vn -0.4875 -0.4482 -0.7493
vn -0.7154 -0.6986 0.0097
vn -0.7071 -0.7071 -0.0000
vn 0.0924 -0.1633 0.9822
vn 0.0716 -0.2557 0.9641
vn 0.0638 -0.6244 0.7785
vn -0.0111 -0.9914 -0.1307
vn -0.0577 -0.4205 -0.9055
vn -0.0499 -0.6081 -0.7923
vn -0.0198 -0.9989 -0.0414
vn -0.0000 -1.0000 -0.0000
vt 0.501406 0.989512
vt 0.622882 0.989512
vt 0.744358 0.989512
vt 0.865833 0.989512
vt 0.015503 0.989512
vt 0.136979 0.989512
vt 0.258455 0.989512
vt 0.379931 0.989512
vt 0.501406 0.010488
vt 0.622882 0.010488
vt 0.744358 0.010488
vt 0.865833 0.010488
vt 0.987309 0.010488
vt 0.015503 0.010488
vt 0.136979 0.010488
vt 0.258455 0.010488
vt 0.379931 0.010488
vt 0.622882 0.867134
vt 0.622882 0.744756
vt 0.622882 0.622378
vt 0.622882 0.500000
vt 0.622882 0.377622
vt 0.622882 0.255244
vt 0.622882 0.132866
vt 0.501406 0.867134
vt 0.501406 0.744756
vt 0.501406 0.622378
vt 0.501406 0.500000
vt 0.501406 0.377622
vt 0.501406 0.255244
vt 0.501406 0.132866
vt 0.744358 0.867134
vt 0.744358 0.744756
vt 0.744358 0.622378
vt 0.744358 0.500000
vt 0.744358 0.377622
vt 0.744358 0.255244
vt 0.744358 0.132866
vt 0.865833 0.867134
vt 0.865833 0.744756
vt 0.865833 0.622378
vt 0.865833 0.500000
vt 0.865833 0.377622
vt 0.865833 0.255244
vt 0.865833 0.132866
vt 0.987309 0.867134
vt 0.015503 0.867134
vt 0.987309 0.744756
vt 0.015503 0.744756
vt 0.987309 0.622378
vt 0.015503 0.622378
vt 0.987309 0.500000
vt 0.015503 0.500000
vt 0.987309 0.377622
vt 0.015503 0.377622
vt 0.987309 0.255244
vt 0.015503 0.255244
vt 0.987309 0.132866
vt 0.015503 0.132866
vt 0.136979 0.867134
vt 0.136979 0.744756
vt 0.136979 0.622378
vt 0.136979 0.500000
vt 0.136979 0.377622
vt 0.136979 0.255244
vt 0.136979 0.132866
vt 0.258455 0.867134
vt 0.258455 0.744756
vt 0.258455 0.622378
vt 0.258455 0.500000
vt 0.258455 0.377622
vt 0.258455 0.255244
vt 0.258455 0.132866
vt 0.379931 0.867134
vt 0.379931 0.744756
vt 0.379931 0.622378
vt 0.379931 0.500000
vt 0.379931 0.377622
vt 0.379931 0.255244
vt 0.379931 0.132866
s 1
usemtl Shroom
f 66/81/58 82/105/59 75/98/60
f 82/105/59 83/106/61 76/99/62 75/98/60
f 83/106/61 84/107/63 77/100/64 76/99/62
f 84/107/63 85/108/65 78/101/66 77/100/64
f 85/108/65 86/109/67 79/102/68 78/101/66
f 86/109/67 87/110/69 80/103/70 79/102/68
f 87/110/69 88/111/71 81/104/72 80/103/70
f 88/111/71 67/89/73 68/90/74 81/104/72
f 66/82/58 75/98/60 89/112/75
f 75/98/60 76/99/62 90/113/76 89/112/75
f 76/99/62 77/100/64 91/114/77 90/113/76
f 77/100/64 78/101/66 92/115/78 91/114/77
f 78/101/66 79/102/68 93/116/79 92/115/78
f 79/102/68 80/103/70 94/117/80 93/116/79
f 80/103/70 81/104/72 95/118/81 94/117/80
f 81/104/72 68/90/74 69/91/82 95/118/81
f 66/83/58 89/112/75 96/119/83
f 89/112/75 90/113/76 97/120/84 96/119/83
f 90/113/76 91/114/77 98/121/85 97/120/84
f 91/114/77 92/115/78 99/122/86 98/121/85
f 92/115/78 93/116/79 100/123/87 99/122/86
f 93/116/79 94/117/80 101/124/88 100/123/87
f 94/117/80 95/118/81 102/125/89 101/124/88
f 95/118/81 69/91/82 70/92/90 102/125/89
f 66/84/58 96/119/83 103/126/91
f 96/119/83 97/120/84 104/128/92 103/126/91
f 97/120/84 98/121/85 105/130/93 104/128/92
f 98/121/85 99/122/86 106/132/94 105/130/93
f 99/122/86 100/123/87 107/134/95 106/132/94
f 100/123/87 101/124/88 108/136/96 107/134/95
f 101/124/88 102/125/89 109/138/97 108/136/96
f 102/125/89 70/92/90 71/93/98 109/138/97
f 66/85/58 103/127/91 110/140/99
f 103/127/91 104/129/92 111/141/100 110/140/99
f 104/129/92 105/131/93 112/142/101 111/141/100
f 105/131/93 106/133/94 113/143/102 112/142/101
f 106/133/94 107/135/95 114/144/103 113/143/102
f 107/135/95 108/137/96 115/145/104 114/144/103
f 108/137/96 109/139/97 116/146/105 115/145/104
f 109/139/97 71/94/98 72/95/106 116/146/105
f 66/86/58 110/140/99 117/147/107
f 110/140/99 111/141/100 118/148/108 117/147/107
f 111/141/100 112/142/101 119/149/109 118/148/108
f 112/142/101 113/143/102 120/150/110 119/149/109
f 113/143/102 114/144/103 121/151/111 120/150/110
f 114/144/103 115/145/104 122/152/112 121/151/111
f 115/145/104 116/146/105 123/153/113 122/152/112
f 116/146/105 72/95/106 73/96/114 123/153/113
f 66/87/58 117/147/107 124/154/115
f 117/147/107 118/148/108 125/155/116 124/154/115
f 118/148/108 119/149/109 126/156/117 125/155/116
f 119/149/109 120/150/110 127/157/118 126/156/117
f 120/150/110 121/151/111 128/158/119 127/157/118
f 121/151/111 122/152/112 129/159/120 128/158/119
f 122/152/112 123/153/113 130/160/121 129/159/120
f 123/153/113 73/96/114 74/97/122 130/160/121
f 67/89/73 88/111/71 130/160/121 74/97/122
f 88/111/71 87/110/69 129/159/120 130/160/121
f 87/110/69 86/109/67 128/158/119 129/159/120
f 86/109/67 85/108/65 127/157/118 128/158/119
f 85/108/65 84/107/63 126/156/117 127/157/118
f 84/107/63 83/106/61 125/155/116 126/156/117
f 83/106/61 82/105/59 124/154/115 125/155/116
f 82/105/59 66/88/58 124/154/115
o Shroom7
v -0.101560 -0.500000 0.092719
v -0.037730 -0.535355 0.003449
v -0.023085 -0.500000 0.003449
v -0.037730 -0.464645 0.003449
v -0.073085 -0.450000 0.003449
v -0.108441 -0.464645 0.003449
v -0.123085 -0.500000 0.003449
v -0.108441 -0.535355 0.003449
v -0.073085 -0.550000 0.003449
v -0.038627 -0.500000 0.086756
v 0.028717 -0.500000 0.076210
v 0.064570 -0.500000 0.067206
v 0.065957 -0.500000 0.056290
v 0.057435 -0.500000 0.049079
v -0.022392 -0.500000 0.043593
v -0.022636 -0.500000 0.022989
v -0.053144 -0.535355 0.084820
v -0.007435 -0.567030 0.074848
v 0.015556 -0.576634 0.068454
v 0.019257 -0.602325 0.052459
v 0.013807 -0.585009 0.047987
v -0.037019 -0.535355 0.042871
v -0.037279 -0.535355 0.022771
v -0.053144 -0.464645 0.084820
v -0.002052 -0.425534 0.074052
v 0.024194 -0.402404 0.065212
v 0.025333 -0.401806 0.054285
v 0.019190 -0.407556 0.047191
v -0.037019 -0.464645 0.042871
v -0.037279 -0.464645 0.022771
v -0.088189 -0.450000 0.080146
v -0.076335 -0.394690 0.068840
v -0.074012 -0.374249 0.055434
v -0.070677 -0.372369 0.045870
v -0.071497 -0.380999 0.038719
v -0.072331 -0.450000 0.041128
v -0.072630 -0.450000 0.022246
v -0.123234 -0.464645 0.075472
v -0.150618 -0.425534 0.063629
v -0.170759 -0.402405 0.055588
v -0.170817 -0.401806 0.044602
v -0.165474 -0.407556 0.038075
v -0.107644 -0.464645 0.039385
v -0.107982 -0.464645 0.021720
v -0.137750 -0.500000 0.073535
v -0.181387 -0.500000 0.061470
v -0.211136 -0.500000 0.053595
v -0.211441 -0.500000 0.042596
v -0.203719 -0.500000 0.036187
v -0.122270 -0.500000 0.038663
v -0.122625 -0.500000 0.021502
v -0.123234 -0.535355 0.075472
v -0.150618 -0.574466 0.063629
v -0.162213 -0.585179 0.063398
v -0.170817 -0.598194 0.044602
v -0.161831 -0.586983 0.041469
v -0.107644 -0.535355 0.039385
v -0.107981 -0.535355 0.021720
v -0.088189 -0.550000 0.080146
v -0.076335 -0.605310 0.068840
v -0.073283 -0.638021 0.060400
v -0.072742 -0.638868 0.049443
v -0.073142 -0.630736 0.042633
v -0.072331 -0.550000 0.041128
v -0.072630 -0.550000 0.022246
vn -0.2020 -0.0000 0.9794
vn 0.0639 -0.1687 0.9836
vn 0.1276 -0.0027 0.9918
vn 0.1243 -0.1968 0.9725
vn 0.2023 -0.0076 0.9793
vn 0.4417 -0.3819 0.8118
vn 0.7089 -0.0125 0.7052
vn 0.6239 -0.7601 -0.1816
vn 0.9699 0.0042 -0.2436
vn 0.2558 -0.1690 -0.9518
vn 0.3883 0.0092 -0.9215
vn 0.4633 -0.4158 -0.7826
vn 0.6218 -0.0048 -0.7831
vn 0.7078 -0.7063 -0.0128
vn 0.9998 -0.0000 -0.0177
vn 0.7042 -0.7098 -0.0165
vn 0.9997 -0.0000 -0.0232
vn 0.0603 0.1642 0.9846
vn 0.1240 0.2312 0.9650
vn 0.5135 0.6148 0.5986
vn 0.6560 0.6911 -0.3034
vn 0.3203 0.2972 -0.8995
vn 0.4674 0.3978 -0.7895
vn 0.7078 0.7063 -0.0128
vn 0.7042 0.7098 -0.0165
vn -0.1017 0.2371 0.9661
vn -0.0583 0.3334 0.9410
vn -0.0556 0.8371 0.5442
vn 0.0549 0.9387 -0.3403
vn 0.0379 0.3869 -0.9214
vn 0.0496 0.5846 -0.8098
vn 0.0010 1.0000 0.0004
vn -0.0059 1.0000 0.0003
vn -0.2738 0.1755 0.9456
vn -0.2181 0.2030 0.9546
vn -0.5661 0.6235 0.5392
vn -0.6169 0.6984 -0.3629
vn -0.2620 0.3146 -0.9123
vn -0.4039 0.4315 -0.8066
vn -0.7068 0.7072 0.0157
vn -0.7101 0.7039 0.0178
vn -0.3528 -0.0000 0.9357
vn -0.2471 0.0209 0.9688
vn -0.7594 0.0127 0.6505
vn -0.9404 0.0212 -0.3395
vn -0.3173 0.0144 -0.9482
vn -0.5943 -0.0134 -0.8042
vn -0.9997 -0.0000 0.0226
vn -0.9997 -0.0000 0.0253
vn -0.2738 -0.1755 0.9456
vn -0.1733 -0.1196 0.9776
vn -0.4754 -0.4137 0.7764
vn -0.6553 -0.6956 -0.2944
vn -0.1634 -0.1979 -0.9665
vn -0.4074 -0.4563 -0.7911
vn -0.7068 -0.7072 0.0157
vn -0.7101 -0.7039 0.0178
vn -0.0987 -0.2381 0.9662
vn -0.0288 -0.2252 0.9739
vn -0.0328 -0.5926 0.8048
vn -0.0104 -0.9876 -0.1567
vn 0.0297 -0.2565 -0.9661
vn 0.0406 -0.6085 -0.7925
vn 0.0010 -1.0000 0.0004
vn -0.0059 -1.0000 0.0003
vt 0.501406 0.989512
vt 0.622882 0.989512
vt 0.744358 0.989512
vt 0.865833 0.989512
vt 0.015503 0.989512
vt 0.136979 0.989512
vt 0.258455 0.989512
vt 0.379931 0.989512
vt 0.501406 0.010488
vt 0.622882 0.010488
vt 0.744358 0.010488
vt 0.865833 0.010488
vt 0.987309 0.010488
vt 0.015503 0.010488
vt 0.136979 0.010488
vt 0.258455 0.010488
vt 0.379931 0.010488
vt 0.622882 0.867134
vt 0.622882 0.744756
vt 0.622882 0.622378
vt 0.622882 0.500000
vt 0.622882 0.377622
vt 0.622882 0.255244
vt 0.622882 0.132866
vt 0.501406 0.867134
vt 0.501406 0.744756
vt 0.501406 0.622378
vt 0.501406 0.500000
vt 0.501406 0.377622
vt 0.501406 0.255244
vt 0.501406 0.132866
vt 0.744358 0.867134
vt 0.744358 0.744756
vt 0.744358 0.622378
vt 0.744358 0.500000
vt 0.744358 0.377622
vt 0.744358 0.255244
vt 0.744358 0.132866
vt 0.865833 0.867134
vt 0.865833 0.744756
vt 0.865833 0.622378
vt 0.865833 0.500000
vt 0.865833 0.377622
vt 0.865833 0.255244
vt 0.865833 0.132866
vt 0.987309 0.867134
vt 0.015503 0.867134
vt 0.987309 0.744756
vt 0.015503 0.744756
vt 0.987309 0.622378
vt 0.015503 0.622378
vt 0.987309 0.500000
vt 0.015503 0.500000
vt 0.987309 0.377622
vt 0.015503 0.377622
vt 0.987309 0.255244
vt 0.015503 0.255244
vt 0.987309 0.132866
vt 0.015503 0.132866
vt 0.136979 0.867134
vt 0.136979 0.744756
vt 0.136979 0.622378
vt 0.136979 0.500000
vt 0.136979 0.377622
vt 0.136979 0.255244
vt 0.136979 0.132866
vt 0.258455 0.867134
vt 0.258455 0.744756
vt 0.258455 0.622378
vt 0.258455 0.500000
vt 0.258455 0.377622
vt 0.258455 0.255244
vt 0.258455 0.132866
vt 0.379931 0.867134
vt 0.379931 0.744756
vt 0.379931 0.622378
vt 0.379931 0.500000
vt 0.379931 0.377622
vt 0.379931 0.255244
vt 0.379931 0.132866
s 1
usemtl Shroom
f 131/161/123 147/185/124 140/178/125
f 147/185/124 148/186/126 141/179/127 140/178/125
f 148/186/126 149/187/128 142/180/129 141/179/127
f 149/187/128 150/188/130 143/181/131 142/180/129
f 150/188/130 151/189/132 144/182/133 143/181/131
f 151/189/132 152/190/134 145/183/135 144/182/133
f 152/190/134 153/191/136 146/184/137 145/183/135
f 153/191/136 132/169/138 133/170/139 146/184/137
f 131/162/123 140/178/125 154/192/140
f 140/178/125 141/179/127 155/193/141 154/192/140
f 141/179/127 142/180/129 156/194/142 155/193/141
f 142/180/129 143/181/131 157/195/143 156/194/142
f 143/181/131 144/182/133 158/196/144 157/195/143
f 144/182/133 145/183/135 159/197/145 158/196/144
f 145/183/135 146/184/137 160/198/146 159/197/145
f 146/184/137 133/170/139 134/171/147 160/198/146
f 131/163/123 154/192/140 161/199/148
f 154/192/140 155/193/141 162/200/149 161/199/148
f 155/193/141 156/194/142 163/201/150 162/200/149
f 156/194/142 157/195/143 164/202/151 163/201/150
f 157/195/143 158/196/144 165/203/152 164/202/151
f 158/196/144 159/197/145 166/204/153 165/203/152
f 159/197/145 160/198/146 167/205/154 166/204/153
f 160/198/146 134/171/147 135/172/155 167/205/154
f 131/164/123 161/199/148 168/206/156
f 161/199/148 162/200/149 169/208/157 168/206/156
f 162/200/149 163/201/150 170/210/158 169/208/157
f 163/201/150 164/202/151 171/212/159 170/210/158
f 164/202/151 165/203/152 172/214/160 171/212/159
f 165/203/152 166/204/153 173/216/161 172/214/160
f 166/204/153 167/205/154 174/218/162 173/216/161
f 167/205/154 135/172/155 136/173/163 174/218/162
f 131/165/123 168/207/156 175/220/164
f 168/207/156 169/209/157 176/221/165 175/220/164
f 169/209/157 170/211/158 177/222/166 176/221/165
f 170/211/158 171/213/159 178/223/167 177/222/166
f 171/213/159 172/215/160 179/224/168 178/223/167
f 172/215/160 173/217/161 180/225/169 179/224/168
f 173/217/161 174/219/162 181/226/170 180/225/169
f 174/219/162 136/174/163 137/175/171 181/226/170
f 131/166/123 175/220/164 182/227/172
f 175/220/164 176/221/165 183/228/173 182/227/172
f 176/221/165 177/222/166 184/229/174 183/228/173
f 177/222/166 178/223/167 185/230/175 184/229/174
f 178/223/167 179/224/168 186/231/176 185/230/175
f 179/224/168 180/225/169 187/232/177 186/231/176
f 180/225/169 181/226/170 188/233/178 187/232/177
f 181/226/170 137/175/171 138/176/179 188/233/178
f 131/167/123 182/227/172 189/234/180
f 182/227/172 183/228/173 190/235/181 189/234/180
f 183/228/173 184/229/174 191/236/182 190/235/181
f 184/229/174 185/230/175 192/237/183 191/236/182
f 185/230/175 186/231/176 193/238/184 192/237/183
f 186/231/176 187/232/177 194/239/185 193/238/184
f 187/232/177 188/233/178 195/240/186 194/239/185
f 188/233/178 138/176/179 139/177/187 195/240/186
f 132/169/138 153/191/136 195/240/186 139/177/187
f 153/191/136 152/190/134 194/239/185 195/240/186
f 152/190/134 151/189/132 193/238/184 194/239/185
f 151/189/132 150/188/130 192/237/183 193/238/184
f 150/188/130 149/187/128 191/236/182 192/237/183
f 149/187/128 148/186/126 190/235/181 191/236/182
f 148/186/126 147/185/124 189/234/180 190/235/181
f 147/185/124 131/168/123 189/234/180
