# Blender 3.5.1
# www.blender.org
o tail-right
v 1.255352 -1.883029 0.041845
v 0.041845 -1.883029 0.041845
v 0.041845 -2.510705 0.041845
v 1.255352 -2.510705 0.041845
v 1.255352 -1.883029 -0.041845
v 1.255352 -2.510705 -0.041845
v 0.041845 -1.883029 -0.041845
v 0.041845 -2.510705 -0.041845
vn -0.0000 -0.0000 1.0000
vn 1.0000 -0.0000 -0.0000
vn -0.0000 -0.0000 -1.0000
vn -1.0000 -0.0000 -0.0000
vn -0.0000 -1.0000 -0.0000
vn -0.0000 1.0000 -0.0000
vt 0.254212 0.491477
vt 0.932210 0.762637
vt 0.864322 0.000000
vt 0.254212 0.982954
vt 0.966105 0.000000
vt 0.864322 0.491477
vt 0.000000 0.982954
vt 0.966105 0.254212
vt 0.830427 0.000000
vt 0.000000 0.491477
vt 0.932210 0.508425
vt 0.830427 0.491477
vt 0.966105 0.762637
vt 0.508425 0.491477
vt 0.898217 0.000000
vt 0.966105 0.508425
vt 0.254212 0.491477
vt 0.864322 0.491477
vt 0.508425 0.000000
vt 1.000000 0.000000
vt 0.898217 0.491477
vt 0.254212 0.000000
vt 1.000000 0.254212
vt 0.864322 0.000000
s 0
f 1/1/1 2/4/1 4/10/1
f 4/10/1 2/4/1 3/7/1
f 5/13/2 1/2/2 6/16/2
f 6/16/2 1/2/2 4/11/2
f 7/19/3 5/14/3 8/22/3
f 8/22/3 5/14/3 6/17/3
f 2/5/4 7/20/4 3/8/4
f 3/8/4 7/20/4 8/23/4
f 3/9/5 8/24/5 4/12/5
f 4/12/5 8/24/5 6/18/5
f 2/6/6 1/3/6 7/21/6
f 7/21/6 1/3/6 5/15/6
