# Blender 3.5.1
# www.blender.org
o smer
v 0.041967 -1.888536 1.133122
v -0.041967 -1.888536 1.133122
v -0.041967 -2.518048 1.133122
v 0.041967 -2.518048 1.133122
v 0.041967 -1.888536 0.041967
v 0.041967 -2.518048 0.041967
v -0.041967 -1.888536 0.041967
v -0.041967 -2.518048 0.041967
vn -0.0000 -0.0000 1.0000
vn 1.0000 -0.0000 -0.0000
vn -0.0000 -0.0000 -1.0000
vn -1.0000 -0.0000 -0.0000
vn -0.0000 -1.0000 -0.0000
vn -0.0000 1.0000 -0.0000
vt 0.940771 0.008265
vt 0.390493 0.670792
vt 0.873276 0.670792
vt 0.991735 0.008265
vt 0.407024 0.670792
vt 0.924240 0.670792
vt 0.991735 0.390493
vt 0.789251 0.670792
vt 0.805782 0.670792
vt 0.940771 0.390493
vt 0.008265 0.670792
vt 0.856745 0.670792
vt 0.390493 0.008266
vt 0.991735 0.407023
vt 0.873276 0.008265
vt 0.008266 0.008265
vt 0.991735 0.789250
vt 0.856745 0.008265
vt 0.940771 0.407023
vt 0.407024 0.008265
vt 0.924240 0.008265
vt 0.940771 0.789250
vt 0.789251 0.008266
vt 0.805782 0.008265
s 0
f 1/1/1 2/4/1 4/10/1
f 4/10/1 2/4/1 3/7/1
f 5/13/2 1/2/2 6/16/2
f 6/16/2 1/2/2 4/11/2
f 7/19/3 5/14/3 8/22/3
f 8/22/3 5/14/3 6/17/3
f 2/5/4 7/20/4 3/8/4
f 3/8/4 7/20/4 8/23/4
f 3/9/5 8/24/5 4/12/5
f 4/12/5 8/24/5 6/18/5
f 2/6/6 1/3/6 7/21/6
f 7/21/6 1/3/6 5/15/6
